<svg width="49" height="49" viewBox="0 0 49 49" fill="none" xmlns="http://www.w3.org/2000/svg">
<g clip-path="url(#clip0_3093_3444)">
<path d="M24.4966 48.3526C37.6714 48.3526 48.3516 37.6723 48.3516 24.4976C48.3516 11.3228 37.6714 0.642578 24.4966 0.642578C11.3219 0.642578 0.641602 11.3228 0.641602 24.4976C0.641602 37.6723 11.3219 48.3526 24.4966 48.3526Z" fill="#231F20"/>
<path d="M24.4968 49C10.9873 49 0 38.0063 0 24.4968C0 10.9873 10.9873 0 24.4968 0C38.0063 0 48.9936 10.9873 48.9936 24.4968C48.9936 38.0063 38.0063 48.9936 24.4968 48.9936V49ZM24.4968 1.28356C11.6997 1.28356 1.28356 11.6997 1.28356 24.4968C1.28356 37.2939 11.6997 47.71 24.4968 47.71C37.2939 47.71 47.71 37.2939 47.71 24.4968C47.71 11.6997 37.3003 1.28356 24.4968 1.28356Z" fill="#231F20"/>
<path d="M35.4969 17.6097V23.0199C37.5121 23.0199 38.0191 22.8531 38.2565 21.0176C38.2758 20.8699 38.295 20.6197 38.5903 20.6197C38.847 20.6197 38.9047 20.8058 38.9047 21.101V21.1844C38.847 22.3396 38.847 22.8081 38.847 23.6296C38.847 24.5794 38.9047 25.125 38.9047 25.5229C38.9047 26.0684 38.77 26.2609 38.5325 26.2609C38.2565 26.2609 38.218 25.9657 38.218 25.863C37.9806 24.1559 38.0833 23.6745 35.4969 23.6296V27.968C35.4969 29.38 35.5161 29.5276 35.6702 29.6944C35.8242 29.842 36.3184 29.842 36.5494 29.842C40.2653 29.842 41.1638 29.335 41.5168 27.4418C41.6708 26.6011 41.7157 26.5369 41.9468 26.5369C42.242 26.5369 42.242 26.7679 42.242 26.8963C42.242 27.1915 42.1265 29.9062 42.1072 30.2656C42.1072 30.3683 42.088 30.5416 41.812 30.5416C41.5745 30.5416 40.9328 30.5223 40.3038 30.4967C39.6749 30.4774 39.0523 30.4774 38.8341 30.4774H34.823C34.47 30.4774 34.0015 30.4967 33.533 30.4967C33.0838 30.5159 32.6153 30.5416 32.2623 30.5416C31.9671 30.5416 31.8516 30.4582 31.8516 30.2271C31.8516 29.8677 31.9414 29.7843 32.4677 29.7843C33.2057 29.7843 33.4368 29.5789 33.4945 29.3928C33.5715 29.0783 33.61 27.4225 33.61 27.0631V19.4195C33.61 18.2194 33.5587 17.7637 33.18 17.6931C33.0004 17.661 32.3201 17.629 32.166 17.584C32.0505 17.5391 32.0505 17.4557 32.0505 17.353C32.0505 17.0193 32.089 16.9102 32.3842 16.9102C32.4998 16.9102 32.8912 16.9102 33.2057 16.9294C33.578 16.9487 34.2454 16.9743 34.3417 16.9743H38.3721C38.8791 16.9743 39.2128 16.9551 39.7583 16.9294C40.2846 16.9102 40.445 16.9102 41.029 16.9102C41.2665 16.9102 41.2857 17.0128 41.2857 17.3722C41.2857 18.0461 41.3243 18.9703 41.3243 19.8752C41.3243 20.087 41.3243 20.2988 41.029 20.2988C40.7723 20.2988 40.7146 20.1512 40.6183 19.58C40.4001 18.3349 39.8161 17.5776 36.3954 17.5776C35.8691 17.5776 35.5931 17.5969 35.4969 17.5969" fill="white"/>
<path d="M30.1572 19.7728C30.3305 20.7676 30.3113 21.0179 30.6835 21.0179C30.8824 21.0179 30.9787 20.9537 30.9787 20.6264C30.9787 20.3376 30.9209 18.9064 30.9209 18.5727C30.9209 18.3416 30.9787 17.2891 30.9787 17.0388C30.9787 16.8527 30.9017 16.7243 30.7027 16.7243C30.5872 16.7243 30.5102 16.7885 30.4653 16.8463C30.1701 17.4688 30.1508 17.533 29.9583 17.533C29.8813 17.533 29.8428 17.533 29.4898 17.3019C29.4128 17.2506 29.1368 17.1222 29.0983 17.1094C28.1805 16.7179 27.7955 16.7629 27.2885 16.7629C24.4518 16.7629 23.3223 19.3171 23.6046 21.2682C23.964 23.7711 26.1974 24.9135 27.6543 26.242C28.7004 27.1982 30.2535 28.5524 30.2984 30.5226C30.3562 33.2117 28.1035 35.1435 25.3695 35.0279C20.1839 34.8097 19.2213 30.5419 19.2341 28.193C19.2341 27.4806 19.279 26.9928 19.324 26.6014C19.4138 25.7606 20.0363 25.8055 21.2365 25.7157L21.9168 27.9876C22.0644 28.5267 22.2697 29.2198 22.3275 29.483C22.3403 29.5343 22.3147 29.6241 22.3147 29.6434C22.3147 29.6627 22.2248 29.8295 21.8718 29.8552C21.3456 29.8937 21.2878 29.99 21.2878 30.1632C21.2878 30.497 21.3841 30.5162 21.6023 30.5162C21.936 30.5162 22.642 30.452 23.5597 30.452C24.4197 30.452 25.1257 30.5162 25.5364 30.5162C25.7546 30.5162 25.8701 30.5162 25.8701 30.1825C25.8701 29.8937 25.7546 29.8488 25.5557 29.8295C24.7727 29.7653 24.6828 29.714 24.5801 29.5921C24.2849 29.284 23.3415 26.3639 23.1875 25.8697L20.6268 17.4239C20.3893 16.6345 20.2866 16.5254 20.0684 16.5254C19.8502 16.5254 19.7154 16.7372 19.5357 17.2121C19.5357 17.2121 16.7889 25.0418 16.1664 26.4281C15.5952 27.6988 14.44 29.9964 12.0847 30.1247C9.70366 30.2531 8.00935 28.2058 8.00935 24.015C8.00935 19.0797 10.1529 17.4239 12.1488 17.4239C14.1448 17.4239 15.3257 18.8101 15.5631 20.1194C15.7364 21.1141 15.7171 21.3644 16.0894 21.3644C16.2819 21.3644 16.3846 21.3002 16.3846 20.9729C16.3846 20.6841 16.3268 19.253 16.3268 18.9192C16.3268 18.6882 16.3846 17.6357 16.3846 17.3854C16.3846 17.1993 16.3076 17.0773 16.1086 17.0773C15.9931 17.0773 15.9097 17.1415 15.8712 17.1993C15.576 17.8218 15.5567 17.886 15.3642 17.886C15.2872 17.886 15.2486 17.886 14.8957 17.6549C13.5479 16.8078 12.489 16.7821 12.059 16.7821C8.20831 16.7821 5.67969 20.2862 5.67969 24.0214C5.67969 27.7566 8.08637 30.8756 11.9178 30.805C14.4079 30.7601 15.961 29.1492 17.2125 25.6772H17.2446C18.1559 25.7285 18.6886 25.8826 18.6437 26.5436L18.5795 28.1994C18.5795 34.322 22.8602 35.6954 25.376 35.6954C28.7517 35.6954 32.519 33.5968 32.4933 29.6241C32.4741 27.4806 30.9017 25.7157 29.5026 24.5669C27.3462 22.7956 25.2861 21.6789 25.0872 20.0424C24.9652 19.0348 25.5557 17.4367 27.3141 17.4239C29.4513 17.4046 30.0224 19.0733 30.1508 19.7728M21.1338 25.0739H17.3794L19.4331 19.3877L21.1338 25.0739Z" fill="white"/>
<path d="M41.1126 31.0488C41.671 31.0488 42.1074 31.4788 42.1074 32.0308C42.1074 32.5827 41.671 33.0255 41.1062 33.0255C40.5415 33.0255 40.0986 32.5955 40.0986 32.0308C40.0986 31.466 40.5415 31.0488 41.1062 31.0488H41.1126ZM41.0998 31.2221C40.657 31.2221 40.3168 31.5879 40.3168 32.0308C40.3168 32.4736 40.657 32.8458 41.1126 32.8458C41.5555 32.8458 41.8828 32.4864 41.8828 32.0372C41.8828 31.5879 41.5555 31.2221 41.1062 31.2221H41.0998ZM40.9265 32.5763H40.734V31.543C40.8367 31.5237 40.9522 31.5109 41.0934 31.5109C41.2667 31.5109 41.3501 31.543 41.4207 31.5879C41.4849 31.6328 41.5234 31.7099 41.5234 31.8061C41.5234 31.9345 41.4335 32.0179 41.318 32.05V32.0628C41.4079 32.1013 41.4592 32.1784 41.4913 32.3067C41.5234 32.4672 41.5426 32.5313 41.5683 32.5634H41.3694C41.3373 32.5249 41.3116 32.4351 41.2923 32.2939C41.2667 32.1848 41.2025 32.1334 41.0549 32.1334H40.9329V32.5634L40.9265 32.5763ZM40.9265 31.9987H41.0549C41.1961 31.9987 41.318 31.9537 41.318 31.8318C41.318 31.7355 41.2538 31.6649 41.0741 31.6649C40.9971 31.6649 40.9586 31.6649 40.9265 31.6778V31.9987Z" fill="white"/>
</g>
<defs>
<clipPath id="clip0_3093_3444">
<rect width="49" height="49" fill="white"/>
</clipPath>
</defs>
</svg>
