<svg width="132" height="23" viewBox="0 0 132 23" fill="none" xmlns="http://www.w3.org/2000/svg">
<g clip-path="url(#clip0_2280_2488)">
<path d="M131.882 22.3601H131.879L131.805 22.3446C130.993 22.1997 130.993 22.0616 130.993 19.7584V12.7983C130.993 10.5749 129.547 8.89874 127.629 8.89874C126.924 8.89874 125.693 8.90046 123.145 10.8794L123.004 10.9892L123.002 8.92362C123.004 8.89703 122.959 8.87129 122.947 8.86529C122.927 8.85585 122.904 8.85156 122.88 8.85156C122.842 8.85156 122.814 8.86272 122.812 8.86272L117.668 10.8288C117.633 10.8442 117.631 10.8777 117.631 10.8854V10.8888V10.8923C117.63 10.9291 117.658 10.9858 117.672 11.0098L118.289 12.0674C118.641 12.625 118.641 12.9518 118.641 13.3301V19.7567C118.641 22.0599 118.641 22.198 117.83 22.3429L117.725 22.3609H117.722C117.722 22.3609 117.721 22.3609 117.72 22.3609C117.69 22.3721 117.635 22.4347 117.635 22.6037C117.634 22.6449 117.642 22.7641 117.698 22.8224C117.72 22.8456 117.748 22.8559 117.785 22.8559H123.733C123.823 22.8559 123.891 22.8327 123.936 22.7873C124.002 22.7212 124.003 22.6234 124.003 22.62C124.007 22.3712 123.87 22.3498 123.856 22.3481H123.851L123.814 22.3412C123.003 22.1962 123.003 22.0581 123.003 19.755V11.6531L123.058 11.6334C123.381 11.5159 123.775 11.4533 124.196 11.4533C125.835 11.4533 126.632 12.8703 126.632 15.7868V19.755C126.632 22.0581 126.632 22.1962 125.82 22.3412L125.769 22.3498C125.754 22.3524 125.626 22.3815 125.626 22.6209C125.626 22.6303 125.631 22.855 125.793 22.855H125.881H131.825C131.872 22.855 131.908 22.8413 131.935 22.8139C131.99 22.7581 132 22.6543 132 22.6166C132 22.3841 131.884 22.3575 131.882 22.3567V22.3601ZM21.1363 1.68385C21.3326 1.09626 21.6968 0.710253 22.9071 0.603028H22.9131H22.9191C22.9243 0.603028 22.9294 0.603028 22.9346 0.603028C22.9397 0.603028 22.9457 0.603028 22.9508 0.603028C23.0477 0.596166 23.1591 0.556708 23.1591 0.315668C23.1591 0.029165 23.0074 0.029165 22.9568 0.029165C22.9457 0.029165 22.9346 0.029165 22.9243 0.0308805L22.8317 0.0386007V0.0283072H14.1326V0.0325961L14.046 0.029165H14.0357C13.8215 0.029165 13.8052 0.24876 13.8052 0.315668C13.8052 0.560997 13.9235 0.597024 14.0126 0.603028C14.0177 0.603028 14.0237 0.603028 14.0289 0.603028C14.0357 0.603028 14.0417 0.603028 14.0486 0.603028H14.0555H14.0623C15.2709 0.71111 15.6352 1.09712 15.8306 1.68385C16.0629 2.32891 16.1075 5.91448 16.1203 8.96651V9.02741L6.99265 11.9722V11.8573C6.99779 7.83937 7.03465 2.41297 7.28665 1.68299C7.48208 1.09626 7.84465 0.71111 9.04807 0.603028H9.05321C9.05321 0.603028 9.06692 0.603028 9.07121 0.603028C9.07721 0.603028 9.08235 0.603028 9.08835 0.603028C9.1775 0.597024 9.29578 0.560997 9.29578 0.315668C9.29578 0.247902 9.27949 0.0283072 9.06521 0.0283072H0.202409C0.151838 0.029165 0.000124716 0.029165 0.000124716 0.315668C0.000124716 0.556708 0.111553 0.595308 0.209266 0.603028C1.4204 0.710253 1.78554 1.09626 1.98097 1.68471C2.25268 2.4713 2.27582 7.66524 2.27582 12.4732V13.3618C2.27582 18.434 2.25011 20.424 1.98097 21.2038C1.78554 21.7905 1.42126 22.1765 0.214409 22.2846H0.210123H0.201552C0.151838 22.2846 -0.000732422 22.2846 -0.000732422 22.5711C-0.000732422 22.8121 0.110695 22.8507 0.207552 22.8585H0.215266H9.05835H9.06521C9.27949 22.8585 9.29578 22.6389 9.29578 22.5711C9.29578 22.397 9.21521 22.3 9.0575 22.2837C7.84636 22.1765 7.48208 21.7905 7.28665 21.2029C7.01922 20.4309 6.99265 18.3919 6.99179 13.5754V13.5145L16.1246 10.5706V13.361C16.1246 18.4331 16.0997 20.4232 15.8306 21.2029C15.636 21.7879 15.2743 22.1722 14.0777 22.282H14.0692C14.0615 22.282 14.0537 22.282 14.0452 22.2837C13.8866 22.3 13.806 22.397 13.806 22.5711C13.806 22.6389 13.8223 22.8585 14.0366 22.8585H14.0469L14.1335 22.855V22.8585H22.8326V22.8525L22.9208 22.8576C22.926 22.8576 22.9311 22.8576 22.9363 22.8576C22.9414 22.8576 22.9466 22.8576 22.9525 22.8576C23.0494 22.8507 23.1608 22.8113 23.1608 22.5702C23.1608 22.2837 23.0091 22.2837 22.9586 22.2837C22.9474 22.2837 22.9363 22.2837 22.926 22.2855L22.8334 22.294V22.2769C21.6823 22.1602 21.3291 21.7776 21.1371 21.2029C20.868 20.424 20.8423 18.434 20.8423 13.3618V12.4732C20.8423 7.6661 20.8654 2.4713 21.1371 1.68471L21.1363 1.68385ZM45.8964 22.3446H45.8904C45.0821 22.1988 45.0821 22.0616 45.0821 19.7584V0.191288C45.0838 0.171559 45.0521 0.152687 45.053 0.152687C45.0384 0.145825 45.0196 0.142394 44.9973 0.142394C44.9647 0.142394 44.9381 0.149256 44.9381 0.149256L39.641 1.76362C39.5922 1.78592 39.587 1.83997 39.587 1.84511V1.85112C39.587 1.85112 39.5802 1.92574 39.6187 1.97721L40.3704 3.04774C40.7219 3.54612 40.7219 3.93384 40.7219 4.30955V19.7575C40.7219 22.0607 40.7219 22.1988 39.911 22.3438C39.7713 22.3695 39.7164 22.4424 39.7164 22.6028C39.7164 22.8576 39.8356 22.8576 39.8862 22.8576H45.9187C45.9693 22.8576 46.0884 22.8576 46.0884 22.6028C46.0884 22.4424 46.0335 22.3695 45.8964 22.3438V22.3446ZM86.8916 8.89874C85.7447 8.89874 84.7084 9.53094 83.427 11.5433L83.271 11.7878L83.2736 11.4979L83.2719 8.85242C83.2753 8.81897 83.2376 8.80181 83.2307 8.79924L83.2264 8.79752C83.2042 8.78809 83.1819 8.78294 83.1596 8.78294C83.1373 8.78294 83.1245 8.78809 83.1245 8.78809L77.9379 10.8296C77.9191 10.8382 77.9105 10.8862 77.9113 10.9137C77.9113 10.9549 77.9379 11.0046 77.9499 11.0235L78.5593 12.07C78.9116 12.6276 78.9116 12.9544 78.9116 13.3327V19.7593C78.9116 22.0624 78.9116 22.2005 78.0999 22.3455L78.0691 22.3507L78.0639 22.3524C77.9876 22.3721 77.9011 22.3953 77.9062 22.6097V22.6166C77.9062 22.6166 77.9019 22.7246 77.9679 22.7941C78.0091 22.8379 78.0733 22.8593 78.1573 22.8593H84.879C84.9339 22.8576 84.9759 22.8396 85.0067 22.8061C85.0702 22.7375 85.0796 22.6123 85.077 22.5668C85.077 22.3318 84.9459 22.3086 84.9313 22.3069L84.0819 22.228C83.3096 22.1705 83.2719 22.0539 83.2719 19.731V12.5444L83.3045 12.5195C83.7236 12.1961 84.0047 12.0812 84.3767 12.0812C84.867 12.0812 85.1944 12.3359 85.5424 12.6061C85.9041 12.8875 86.3139 13.2066 86.9516 13.2066C87.7753 13.2066 88.9247 12.3994 88.9247 11.0835C88.9247 9.76769 88.1267 8.90132 86.8924 8.90132L86.8916 8.89874ZM30.7928 8.7452C26.6048 8.7452 23.1968 11.9825 23.1968 15.9618C23.1968 19.4221 26.0382 23.0009 30.7928 23.0009C34.997 23.0009 38.4179 19.7635 38.4179 15.7842C38.4179 12.3239 35.5653 8.7452 30.7928 8.7452ZM30.7928 22.3095C29.9785 22.3095 29.2885 21.6601 28.7974 20.4318C28.3157 19.2283 28.0611 17.5599 28.0611 15.6067C28.0611 11.6857 29.0571 9.43744 30.7928 9.43744C32.5285 9.43744 33.5545 12.0683 33.5545 16.1402C33.5545 20.2122 32.5739 22.3103 30.7928 22.3103V22.3095ZM57.3863 8.7452C55.3943 8.7452 53.6929 9.91952 52.7792 10.6984L52.6421 10.8151V0.0737702C52.6455 0.0403163 52.6181 0.0231604 52.6095 0.0188714C52.5838 0.00686234 52.5538 0 52.5221 0C52.4835 0 52.4544 0.00943572 52.4509 0.0111513L47.1881 1.61522C47.1247 1.63667 47.1204 1.67098 47.1204 1.67784V1.68213V1.68642C47.1213 1.73274 47.1495 1.78421 47.159 1.79879L47.9287 2.89505C48.2801 3.39343 48.2801 3.78115 48.2801 4.15686V16.4362C48.2801 18.0034 48.2364 19.1339 48.185 20.4429L48.161 21.0648L48.1687 21.0717C49.7004 22.2975 52.0772 23.0009 54.6915 23.0009C58.6437 23.0009 62.7314 19.9806 62.7314 14.9256C62.7314 11.2294 60.5826 8.7452 57.3846 8.7452H57.3863ZM54.9889 22.0427C53.8206 22.0427 52.6412 20.913 52.6412 18.3902V11.4447L52.7038 11.4292C53.0372 11.3452 53.4778 11.3031 54.0118 11.3031C56.4075 11.3031 58.0163 13.4373 58.0163 16.6137C58.0163 19.9626 56.8558 22.0427 54.9881 22.0427H54.9889ZM108.823 8.7452C104.635 8.7452 101.227 11.9825 101.227 15.9618C101.227 19.4221 104.069 23.0009 108.823 23.0009C113.027 23.0009 116.448 19.7635 116.448 15.7842C116.448 12.3239 113.596 8.7452 108.823 8.7452ZM108.823 22.3095C108.009 22.3095 107.319 21.6601 106.828 20.4318C106.346 19.2283 106.091 17.5599 106.091 15.6067C106.091 11.6857 107.087 9.43744 108.823 9.43744C110.559 9.43744 111.585 12.0683 111.585 16.1402C111.585 20.2122 110.604 22.3103 108.823 22.3103V22.3095ZM76.5151 18.6193C76.4722 18.5952 76.4431 18.5901 76.4268 18.5901C76.4105 18.5901 76.4028 18.5952 76.4011 18.597L76.3856 18.615C75.5808 19.5594 74.6354 19.9994 73.4122 19.9994C70.3942 19.9994 68.5197 17.8172 68.5197 14.3037C68.5197 14.127 68.5197 13.9752 68.5377 13.8062L68.5454 13.7315H74.9508C75.8328 13.7315 76.2434 13.349 76.2434 12.5272C76.2434 10.3012 74.2514 8.74606 71.3997 8.74606C67.9171 8.74606 64.1594 11.6977 64.1594 16.4662C64.1594 20.3143 66.8208 23.0017 70.6308 23.0017C73.2648 23.0017 75.7616 21.2021 76.5682 18.723L76.5768 18.6965C76.5845 18.669 76.5339 18.6304 76.5151 18.6201V18.6193ZM68.6268 12.9964C68.7657 12.1077 69.058 11.2928 69.4505 10.7027C69.91 10.0104 70.4928 9.6699 71.134 9.64502C72.2808 9.59956 72.7119 10.6323 72.7119 12.3728C72.7119 12.812 72.4762 13.0376 71.9911 13.0633L68.6114 13.0976L68.6268 12.9964ZM100.234 19.4813C100.208 19.4813 100.188 19.4899 100.187 19.4899L100.173 19.4985C99.2429 20.044 98.4441 20.1178 97.7858 20.1178C96.6124 20.1178 95.5272 19.9514 95.5272 18.7462V10.2987L99.1306 10.2944C100.093 10.2944 100.023 9.41942 100.023 9.41942V9.02999C100.023 8.89531 99.8883 8.89531 99.8883 8.89531H95.5272V8.52389L95.5255 6.29706V6.28762C95.5298 6.24816 95.4869 6.20785 95.4758 6.19927C95.4458 6.1804 95.4158 6.1701 95.3858 6.1701C95.3627 6.1701 95.3472 6.17611 95.3472 6.17611L90.153 8.36434C90.117 8.37806 90.1204 8.4484 90.1204 8.4484V8.45269V8.45698C90.1204 8.52217 90.1684 8.55048 90.1727 8.55305L90.1787 8.55648C90.5584 8.79152 91.1953 9.29933 91.1953 10.0533C91.1661 11.551 91.1661 16.4113 91.1661 19.96C91.1661 21.7502 92.781 23.0009 95.0927 23.0009C97.4044 23.0009 99.3655 21.2827 100.318 19.6743L100.328 19.6572C100.373 19.58 100.328 19.5277 100.315 19.5148C100.289 19.4925 100.262 19.4813 100.233 19.4813H100.234Z" fill="black"/>
</g>
<defs>
<clipPath id="clip0_2280_2488">
<rect width="132" height="23" fill="white"/>
</clipPath>
</defs>
</svg>
