<svg xmlns="http://www.w3.org/2000/svg" id="Layer_1" viewBox="0 0 519.4 126.2"><defs><style>      .st0 {        fill: #926b44;      }      .st1 {        fill: #2a333a;      }      .st2 {        fill: #4a535a;      }    </style></defs><path class="st0" d="M335.61,18.93v1.49c0,2.01.02,3.8.07,5.36.05,1.57.12,3.1.22,4.6-.41-.05-.86-.07-1.34-.07h-3.27c-.49,0-.94.02-1.35.07.1-1.5.17-3.03.22-4.6.05-1.56.08-3.35.08-5.36v-4.94c0-2.01-.03-3.8-.08-5.36-.05-1.56-.12-3.13-.22-4.71.41.05.86.1,1.35.13.48.03,1.03.05,1.64.05.65,0,1.4-.03,2.23-.09.84-.06,1.87-.1,3.11-.1.92,0,1.71.03,2.36.08.65.05,1.22.12,1.69.22.47.1.88.23,1.23.38.36.16.69.34,1,.56.73.53,1.31,1.2,1.73,1.98.42.79.64,1.73.64,2.82,0,1.77-.49,3.21-1.46,4.32-.97,1.11-2.36,1.9-4.18,2.36,1.16,2.06,2.42,4.12,3.74,6.17,1.33,2.05,2.67,4.08,4,6.08-.56-.05-1.1-.07-1.64-.07h-3.29c-.55,0-1.1.02-1.66.07l-6.5-11.45h-.33ZM341.35,12.24c0-1.07-.11-1.92-.33-2.55-.22-.63-.55-1.11-1-1.44-.45-.32-1.03-.53-1.75-.63-.71-.1-1.57-.15-2.56-.15-.08,3.3-.11,6.59-.11,9.89.14.03.28.04.42.05.13.01.26.02.38.02,1.6,0,2.82-.43,3.67-1.29.85-.86,1.27-2.16,1.27-3.91"></path><path class="st0" d="M352.04,10.11c-.05-1.56-.12-3.13-.22-4.71,1.09.03,2.17.06,3.24.11,1.07.05,2.14.08,3.24.08,1.79,0,3.38-.02,4.78-.05,1.4-.03,2.33-.08,2.82-.13-.1.39-.15.9-.15,1.53,0,.39.01.69.04.91.02.22.06.46.11.73-.7-.05-1.47-.1-2.31-.14-.83-.05-1.64-.1-2.43-.14-.79-.05-1.5-.09-2.13-.11-.63-.03-1.08-.03-1.35-.03-.1,1.33-.15,2.65-.16,3.96,0,1.31-.01,2.63-.01,3.96,1.57-.02,3-.05,4.27-.11,1.27-.04,2.6-.1,3.98-.18-.07.41-.12.73-.14.94-.02.22-.03.45-.03.69,0,.19.02.4.05.6.03.21.08.5.12.89-2.76-.22-5.51-.33-8.25-.33,0,.77,0,1.55-.02,2.33-.01.77-.02,1.55-.02,2.33,0,1.57.04,3.09.11,4.54,1.38,0,2.77-.04,4.15-.11,1.38-.08,2.77-.19,4.18-.36-.05.27-.09.51-.11.73-.03.22-.04.52-.04.91s.01.69.04.9c.02.22.06.4.11.55-.66-.02-1.46-.04-2.42-.05-.96-.01-2.27-.01-3.95-.01h-5.76c-.54,0-.96,0-1.23.01-.28.01-.52.03-.71.05.1-1.5.17-3.03.22-4.6.05-1.56.08-3.35.08-5.36v-4.95c0-2-.03-3.8-.08-5.36"></path><path class="st0" d="M388.46,8.19c-1.16-.66-2.58-1-4.26-1-1.11,0-2.22.23-3.32.71-1.11.47-2.09,1.18-2.95,2.12-.86.94-1.55,2.13-2.09,3.55-.53,1.42-.8,3.09-.8,5,0,1.46.2,2.8.6,4.04.4,1.23.97,2.31,1.72,3.22.75.91,1.67,1.61,2.77,2.13,1.09.51,2.33.76,3.74.76.32,0,.67-.01,1.07-.05.4-.03.79-.08,1.16-.12.38-.05.72-.12,1.04-.2.32-.09.54-.18.69-.27.05-.29.08-.66.09-1.1.01-.43.02-.92.02-1.45,0-1.96-.04-3.42-.11-4.35-.08-.93-.12-1.57-.15-1.91.25.05.57.1.97.13.4.03.98.05,1.72.05.88,0,1.53-.02,1.95-.05.42-.03.75-.08,1-.13-.05.2-.1.51-.13.94-.03.44-.07.94-.09,1.51-.03.57-.04,1.18-.05,1.81-.01.64-.02,1.26-.02,1.84v1.2c0,.6,0,1.17.02,1.69.01.52.04.89.09,1.11-1.6.46-3.22.82-4.85,1.09-1.64.27-3.25.4-4.85.4-2.09,0-4-.27-5.76-.82-1.76-.54-3.27-1.34-4.54-2.4-1.27-1.05-2.27-2.33-2.98-3.82-.72-1.49-1.07-3.17-1.07-5.04,0-2.3.38-4.32,1.14-6.05.77-1.73,1.82-3.18,3.16-4.33,1.35-1.15,2.94-2.02,4.78-2.6,1.84-.58,3.83-.87,5.96-.87,1.84,0,3.44.18,4.78.56,1.35.38,2.68.92,3.98,1.62-.19.63-.38,1.25-.56,1.85-.18.61-.34,1.23-.46,1.85h-.51c-.77-1.09-1.75-1.97-2.91-2.63"></path><path class="st0" d="M399.22,12.64c0-1.67-.03-3.08-.08-4.21-.05-1.14-.08-2.14-.11-3.02.69.12,1.22.18,1.64.18s.96-.06,1.64-.18c2.63,2.94,5.25,5.82,7.83,8.65,2.58,2.83,5.23,5.72,7.95,8.65v-6.69c0-1.18,0-2.35-.02-3.51-.01-1.15-.03-2.21-.03-3.18-.01-.97-.04-1.81-.08-2.51-.03-.7-.07-1.18-.13-1.42.68.12,1.22.18,1.63.18s.96-.06,1.64-.18c-.12,2.2-.22,4.2-.29,5.98-.07,1.78-.13,3.46-.18,5.03-.05,1.58-.08,3.14-.09,4.67-.01,1.54-.01,3.18-.01,4.93v4.36c-.49-.05-.99-.08-1.49-.08-.53,0-1.01.03-1.42.08-5-5.82-10.29-11.67-15.88-17.55-.03.7-.05,1.4-.05,2.11-.01.7-.02,1.42-.02,2.14v4.21c0,1.46,0,2.69.02,3.71,0,1.02.03,1.87.05,2.58.02.7.04,1.28.07,1.72.03.45.05.81.08,1.07-.29-.05-.58-.08-.88-.08h-.83c-.55,0-1.11.03-1.67.08.05-.19.11-.88.18-2.07.07-1.18.15-2.63.24-4.34.08-1.71.16-3.57.22-5.56.06-2,.09-3.92.09-5.76"></path><path class="st0" d="M438.26,30.85c-1.55,0-3-.16-4.35-.49-1.34-.33-2.51-.87-3.51-1.64-1-.76-1.78-1.75-2.35-2.94-.57-1.2-.86-2.66-.86-4.38,0-.97,0-1.83.02-2.6.01-.76.02-1.47.02-2.13s0-1.28.01-1.89c.01-.6.02-1.23.02-1.89,0-1.96-.01-3.55-.04-4.76-.03-1.21-.06-2.12-.11-2.72.49.05.98.09,1.48.12.51.04,1.01.05,1.49.05s.98-.01,1.49-.05c.51-.03,1.01-.08,1.49-.12-.25,2.35-.39,4.54-.44,6.56-.05,2.02-.08,4.07-.08,6.16,0,2.2.16,3.99.48,5.34.31,1.36.78,2.4,1.4,3.14.62.74,1.38,1.23,2.27,1.47.9.25,1.94.36,3.13.36,1.45,0,2.59-.36,3.42-1.09.82-.73,1.45-1.7,1.88-2.91.42-1.21.68-2.6.78-4.16.1-1.56.14-3.2.14-4.89s-.03-3.34-.08-5c-.05-1.66-.12-3.33-.22-5,.34.05.67.09.99.12.31.04.6.05.87.05.31,0,.62-.01.91-.05.29-.03.6-.08.91-.12-.05.53-.1,1.25-.14,2.14s-.1,1.94-.15,3.11c-.05,1.18-.09,2.48-.12,3.89s-.05,2.92-.05,4.49c0,4.21-.91,7.24-2.72,9.07-1.82,1.83-4.49,2.74-8,2.74"></path><path class="st0" d="M457.48,22.24c-.19,2.72-.39,5.43-.58,8.14-.29-.05-.58-.07-.87-.07h-1.69c-.28,0-.57.03-.86.07.77-4.17,1.47-8.31,2.07-12.43.61-4.12,1.16-8.3,1.68-12.54.27.05.51.09.75.12.23.04.48.05.75.05.21,0,.44-.01.69-.05.24-.03.49-.08.76-.12.66,1.45,1.34,2.93,2.05,4.44.71,1.5,1.43,3,2.15,4.49.71,1.49,1.42,2.95,2.14,4.38.71,1.43,1.4,2.79,2.05,4.07,1.45-2.72,2.9-5.56,4.35-8.53,1.44-2.97,2.81-5.92,4.13-8.85.6.12,1.12.18,1.56.18.41,0,.92-.05,1.53-.18.24,2.08.51,4.33.78,6.72.28,2.4.55,4.75.82,7.03.27,2.29.53,4.43.8,6.42.26,1.99.51,3.59.73,4.8-.49-.05-.98-.07-1.47-.07h-2.96c-.51,0-1.02.03-1.53.07-.12-2.5-.32-5.2-.6-8.11-.28-2.91-.56-5.79-.86-8.65h-.07c-1.38,2.86-2.74,5.67-4.07,8.43-1.33,2.77-2.65,5.54-3.96,8.33-.12-.03-.24-.05-.35-.05-.11-.01-.22-.02-.34-.02s-.24,0-.35.02c-.1,0-.22.03-.34.05-1.31-2.72-2.61-5.43-3.91-8.14-1.29-2.72-2.63-5.46-4.02-8.25h-.07c-.39,2.79-.68,5.54-.88,8.25"></path><path class="st0" d="M349.38,61.48c-.14.52-.25,1.03-.29,1.55-1.96.99-4.44,1.49-7.42,1.49-2.11,0-4-.3-5.65-.9-1.66-.59-3.07-1.42-4.22-2.5-1.15-1.08-2.03-2.35-2.63-3.83-.61-1.48-.91-3.08-.91-4.8,0-2.52.4-4.65,1.18-6.41.79-1.76,1.84-3.19,3.16-4.29,1.32-1.1,2.85-1.91,4.6-2.42s3.57-.77,5.49-.77c.63,0,1.29.05,2,.15.7.1,1.38.23,2.03.38.66.16,1.28.35,1.88.57s1.09.45,1.51.69c-.24.6-.43,1.22-.56,1.83-.14.62-.23,1.25-.27,1.88h-.51c-.92-1.16-1.87-2-2.84-2.49-.97-.5-2.11-.75-3.42-.75-.97,0-1.94.22-2.92.65-.98.44-1.87,1.11-2.68,2-.8.9-1.44,2.04-1.94,3.43-.5,1.4-.75,3.07-.75,5s.25,3.46.77,4.78c.51,1.32,1.16,2.4,1.98,3.24s1.73,1.45,2.77,1.83c1.03.39,2.07.58,3.11.58.58,0,1.18-.06,1.78-.2.61-.13,1.2-.32,1.78-.55.58-.23,1.14-.51,1.66-.86.52-.34.98-.71,1.36-1.12l.47.29c-.19.51-.36,1.03-.51,1.55"></path><path class="st0" d="M368.14,51.92c-.92-.03-1.84-.05-2.77-.05s-1.84.01-2.76.03c-.92.03-1.85.06-2.77.11v2.07c0,2.01.02,3.8.08,5.36.05,1.57.12,3.1.22,4.6-.42-.05-.86-.07-1.35-.07h-3.27c-.49,0-.93.02-1.34.07.1-1.5.16-3.03.21-4.6.05-1.56.08-3.35.08-5.36v-4.94c0-2.01-.03-3.8-.08-5.36-.05-1.56-.12-3.13-.21-4.71.41.05.86.1,1.34.13s1.03.05,1.64.05,1.15-.02,1.63-.05c.49-.03.93-.08,1.35-.13-.12,1.58-.21,3.13-.24,4.67-.03,1.54-.05,3.31-.05,5.32.63.03,1.39.04,2.27.05.88.01,1.98.02,3.29.02s2.37,0,3.2-.02c.82-.01,1.59-.03,2.29-.05,0-2.01-.03-3.78-.08-5.32-.05-1.54-.12-3.09-.22-4.67.41.05.86.1,1.35.13.48.03,1.03.05,1.63.05s1.15-.02,1.64-.05c.49-.03.93-.08,1.34-.13-.1,1.58-.17,3.15-.21,4.71-.05,1.57-.08,3.35-.08,5.36v4.94c0,2.01.02,3.8.08,5.36.04,1.57.12,3.1.21,4.6-.41-.05-.86-.07-1.34-.07h-3.27c-.49,0-.94.02-1.35.07.1-1.5.17-3.03.22-4.6.05-1.56.08-3.35.08-5.36v-2.07c-.92-.02-1.84-.05-2.77-.09"></path><path class="st0" d="M388.13,52.59v1.49c0,2.01.02,3.8.07,5.36.05,1.56.12,3.09.22,4.6-.41-.05-.86-.07-1.34-.07h-3.27c-.49,0-.94.02-1.35.07.1-1.5.17-3.04.22-4.6.05-1.57.08-3.35.08-5.36v-4.94c0-2.01-.03-3.8-.08-5.36-.05-1.56-.12-3.13-.22-4.71.41.05.86.1,1.35.13.48.03,1.03.05,1.64.05.65,0,1.4-.03,2.23-.09.84-.06,1.87-.1,3.11-.1.92,0,1.71.03,2.37.08.65.05,1.22.12,1.69.22.47.1.88.23,1.23.38.36.16.69.34,1,.56.73.53,1.31,1.2,1.73,1.98.42.79.64,1.72.64,2.81,0,1.77-.49,3.21-1.46,4.32-.97,1.11-2.36,1.9-4.18,2.37,1.16,2.06,2.42,4.11,3.74,6.16,1.33,2.05,2.67,4.08,4,6.09-.56-.05-1.1-.07-1.64-.07h-3.29c-.55,0-1.1.02-1.66.07l-6.5-11.46h-.33ZM393.88,45.9c0-1.07-.11-1.92-.33-2.55-.22-.63-.55-1.11-1-1.44-.45-.32-1.03-.53-1.75-.63-.71-.1-1.57-.15-2.56-.15-.08,3.3-.11,6.59-.11,9.89.14.03.28.04.42.05.13.01.26.02.38.02,1.6,0,2.82-.43,3.67-1.29.85-.86,1.27-2.16,1.27-3.91"></path><path class="st0" d="M405.03,43.77c-.05-1.56-.12-3.13-.22-4.71.41.05.86.1,1.35.13.48.04,1.03.05,1.64.05s1.15-.02,1.63-.05c.49-.03.93-.08,1.34-.13-.1,1.57-.16,3.15-.22,4.71-.05,1.56-.07,3.35-.07,5.36v4.95c0,2.01.02,3.8.07,5.36.05,1.57.12,3.1.22,4.6-.41-.05-.86-.07-1.34-.07h-3.27c-.49,0-.94.02-1.35.07.1-1.5.17-3.03.22-4.6.05-1.56.08-3.35.08-5.36v-4.95c0-2-.03-3.8-.08-5.36"></path><path class="st0" d="M423.39,40.85c-1.12,0-2.03.33-2.72.98-.7.66-1.05,1.42-1.05,2.29s.27,1.63.81,2.2c.55.58,1.23,1.09,2.05,1.55.83.46,1.71.9,2.65,1.33.95.42,1.83.94,2.66,1.56.82.62,1.51,1.37,2.05,2.26.55.88.81,2.01.81,3.39,0,1.21-.23,2.32-.69,3.33-.46,1.01-1.11,1.87-1.96,2.58-.84.72-1.85,1.27-3.03,1.63-1.18.38-2.49.57-3.94.57-1.31,0-2.48-.14-3.51-.42-1.03-.28-1.81-.62-2.34-1.04.24-.85.45-1.62.62-2.33.17-.7.32-1.46.44-2.29h.69c.1.53.27,1.03.54,1.51.27.47.61.89,1.02,1.25.41.37.91.65,1.49.86.58.2,1.23.31,1.96.31,1.45,0,2.53-.36,3.22-1.09.69-.73,1.03-1.6,1.03-2.62,0-.92-.27-1.68-.8-2.26-.53-.58-1.2-1.09-2-1.54-.8-.45-1.67-.89-2.61-1.31-.95-.42-1.82-.94-2.62-1.54-.8-.61-1.47-1.36-2-2.24-.53-.88-.8-2.02-.8-3.4,0-1.26.23-2.37.67-3.34.45-.97,1.06-1.79,1.8-2.44.75-.66,1.62-1.15,2.6-1.49.98-.34,2.02-.51,3.11-.51,1.31,0,2.46.16,3.44.47.98.32,1.82.75,2.52,1.31-.22.56-.4,1.09-.56,1.62-.16.53-.36,1.18-.6,1.98h-.54c-.78-2.09-2.24-3.13-4.4-3.13"></path><path class="st0" d="M439.51,43.07c-.01-.58-.04-1.01-.09-1.27-.36,0-.82.01-1.35.03-.53.03-1.1.05-1.71.1-.61.03-1.22.08-1.85.14-.63.06-1.21.12-1.74.2.05-.27.09-.53.12-.8.04-.27.05-.53.05-.8s-.01-.53-.05-.79c-.03-.27-.08-.53-.12-.8.82.02,1.57.05,2.23.07.67.03,1.35.05,2.04.05.69.01,1.44.03,2.25.04.81,0,1.79.01,2.93.01s2.11,0,2.92-.01c.81-.01,1.56-.03,2.24-.04.68,0,1.34-.03,1.98-.05.64-.02,1.34-.05,2.09-.07-.05.27-.09.53-.13.8-.03.27-.05.53-.05.79s.02.53.05.8c.04.27.08.53.13.8-.49-.08-1.03-.14-1.64-.2-.61-.06-1.2-.11-1.8-.14-.6-.04-1.16-.07-1.69-.1-.53-.02-.99-.03-1.35-.03-.02.12-.04.29-.05.51,0,.22-.01.47-.01.77v11.01c0,2.01.02,3.8.07,5.37.05,1.56.12,3.09.22,4.6-.41-.05-.86-.08-1.34-.08h-3.27c-.49,0-.94.02-1.35.08.1-1.51.17-3.04.22-4.6.05-1.57.08-3.35.08-5.37v-9.09c0-.7,0-1.34-.02-1.92"></path><path class="st0" d="M455.52,43.77c-.05-1.56-.12-3.13-.22-4.71.41.05.86.1,1.35.13.48.04,1.03.05,1.64.05s1.15-.02,1.63-.05c.49-.03.93-.08,1.34-.13-.1,1.57-.17,3.15-.22,4.71-.05,1.56-.07,3.35-.07,5.36v4.95c0,2.01.02,3.8.07,5.36.05,1.57.12,3.1.22,4.6-.41-.05-.86-.07-1.34-.07h-3.27c-.49,0-.94.02-1.35.07.1-1.5.17-3.03.22-4.6.05-1.56.08-3.35.08-5.36v-4.95c0-2-.03-3.8-.08-5.36"></path><path class="st2" d="M328.95,77.47c-.03-.86-.07-1.74-.11-2.65.18.03.34.05.51.08.16.02.33.03.49.03s.33,0,.49-.03c.16-.02.33-.05.51-.08-.04.9-.08,1.79-.11,2.65-.04.86-.05,1.75-.05,2.65v3.51c0,.9.02,1.79.05,2.66.03.87.07,1.73.11,2.57-.32-.03-.64-.04-1-.04s-.69.01-1,.04c.04-.85.08-1.7.11-2.57.03-.88.05-1.76.05-2.66v-3.51c0-.9-.02-1.79-.05-2.65"></path><path class="st2" d="M341.18,83.56c-1.77-1.9-3.55-3.79-5.31-5.67-.01.38-.03.9-.04,1.53-.01.64-.02,1.51-.02,2.62,0,.28,0,.64,0,1.06,0,.42.01.86.02,1.33,0,.47.02.93.03,1.41.01.48.02.92.04,1.33,0,.41.03.77.04,1.07,0,.31.02.51.03.62-.21-.03-.45-.04-.71-.04-.27,0-.53.01-.76.04.03-.14.06-.39.1-.76.03-.36.06-.81.09-1.31.03-.51.06-1.07.1-1.66.03-.6.06-1.2.08-1.8.02-.6.03-1.19.05-1.76.01-.57.02-1.08.02-1.53,0-1.31,0-2.43,0-3.37,0-.94-.03-1.64-.05-2.1h.33c.83.9,1.72,1.86,2.67,2.89.94,1.03,1.88,2.05,2.82,3.05.93,1,1.81,1.95,2.66,2.84.83.9,1.57,1.66,2.2,2.28v-2.78c0-1.43,0-2.82-.03-4.18-.03-1.35-.07-2.63-.14-3.83.27.07.51.1.7.1.16,0,.38-.04.65-.1-.03.3-.05.75-.09,1.35-.04.6-.07,1.24-.1,1.92-.03.69-.07,1.35-.1,2.01-.03.65-.04,1.18-.04,1.57v1.22c0,.47,0,.94.01,1.45,0,.51.01,1.01.02,1.52,0,.51.01.99.02,1.43,0,.44,0,.83,0,1.16v.68h-.28c-1.57-1.81-3.24-3.67-5.01-5.57"></path><path class="st2" d="M353.36,75.89c-.36,0-.73,0-1.12,0-.38.01-.77.02-1.16.05-.39.01-.76.04-1.12.07-.36.03-.69.06-.97.1.07-.25.1-.46.1-.66,0-.15-.03-.36-.1-.63.9.03,1.78.05,2.63.07.86.02,1.74.04,2.63.04s1.78-.01,2.64-.04c.86-.02,1.73-.04,2.63-.07-.07.27-.1.49-.1.65,0,.18.03.39.1.64-.29-.04-.61-.07-.97-.1-.36-.03-.73-.05-1.12-.07-.39-.03-.78-.03-1.16-.05-.39,0-.76,0-1.11,0-.04,1.4-.06,2.81-.06,4.23v3.52c0,.9.01,1.79.05,2.65.04.87.08,1.73.12,2.57-.31-.03-.65-.04-1.01-.04s-.68.01-1,.04c.04-.84.08-1.7.11-2.57.03-.87.05-1.76.05-2.65v-3.52c0-1.42-.02-2.83-.06-4.23"></path><path class="st2" d="M361.89,77.44c-.03-.87-.07-1.74-.11-2.61.61.03,1.22.05,1.83.07.6.02,1.22.03,1.83.03s1.22-.01,1.82-.03c.6-.02,1.2-.04,1.82-.07-.04.21-.06.41-.06.61s.02.41.06.62c-.44-.03-.83-.06-1.2-.08-.36-.03-.75-.05-1.14-.08-.4-.03-.84-.05-1.32-.07-.48-.02-1.05-.03-1.72-.03-.01.44-.03.86-.05,1.25-.02.4-.03.85-.03,1.35,0,.53,0,1.05.01,1.55,0,.51,0,.89,0,1.14.6,0,1.14,0,1.62-.01.48-.01.92-.04,1.31-.05.4-.02.76-.04,1.1-.06.33-.02.65-.04.95-.07-.04.2-.06.41-.06.63,0,.21.02.41.06.62-.36-.04-.77-.08-1.24-.1-.46-.03-.94-.04-1.41-.05-.47,0-.91-.01-1.33-.02-.42,0-.75,0-.99,0,0,.12,0,.25,0,.4,0,.14-.01.33-.01.54v2.03c0,.77,0,1.42.01,1.92,0,.5.01.88.03,1.14h1.43c.52,0,1.03-.01,1.53-.03.5-.02.97-.05,1.41-.08.44-.04.83-.08,1.16-.15-.03.1-.05.2-.05.32,0,.12,0,.23,0,.32,0,.21.02.39.06.53-.61-.03-1.22-.04-1.83-.04h-3.71c-.61,0-1.23.01-1.85.04.04-.87.08-1.74.11-2.61.03-.86.05-1.74.05-2.64v-3.52c0-.9-.02-1.79-.05-2.66"></path><path class="st2" d="M372.15,80.12c0-.9-.01-1.78-.05-2.65-.03-.86-.08-1.75-.12-2.65.4.03.79.05,1.16.08.38.02.77.03,1.17.03s.78-.01,1.16-.05c.38-.03.77-.05,1.16-.05.57,0,1.11.05,1.63.16.52.11.97.29,1.36.54.38.25.69.59.92.99.23.41.33.92.33,1.53,0,.66-.14,1.22-.44,1.69-.29.46-.65.86-1.07,1.16-.42.31-.88.54-1.35.71-.49.17-.92.29-1.32.34.16.2.39.49.68.86.28.37.6.77.96,1.22.36.44.73.9,1.1,1.39.38.48.75.94,1.1,1.39.36.44.69.85,1.01,1.22.31.36.56.64.75.83-.2-.03-.4-.04-.61-.04h-1.2c-.2,0-.4.01-.6.04-.2-.29-.51-.72-.93-1.29-.42-.57-.88-1.18-1.38-1.84-.5-.66-1.01-1.31-1.54-1.95-.53-.65-1.01-1.2-1.44-1.65h-.78v1.5c0,.9.02,1.78.05,2.65.03.87.07,1.72.11,2.57-.32-.03-.65-.04-1-.04s-.69.01-1.01.04c.04-.85.08-1.71.12-2.57.03-.88.05-1.76.05-2.65v-3.52ZM373.83,81.28c.19.04.4.07.62.08.23.01.47.02.75.02.42,0,.86-.05,1.32-.14.45-.1.88-.26,1.25-.5.38-.24.7-.56.95-.96.25-.4.38-.91.38-1.53,0-.53-.1-.97-.3-1.32-.2-.34-.45-.62-.77-.82-.32-.21-.65-.35-1.02-.42-.37-.08-.73-.11-1.08-.11-.48,0-.88,0-1.19.03-.31.02-.57.05-.79.07-.03.75-.05,1.49-.08,2.22-.03.74-.04,1.47-.04,2.21v1.16Z"></path><path class="st2" d="M391.14,83.56c-1.77-1.9-3.55-3.79-5.31-5.67-.01.38-.03.9-.04,1.53-.01.64-.02,1.51-.02,2.62,0,.28,0,.64,0,1.06,0,.42.01.86.02,1.33,0,.47.02.93.03,1.41.01.48.03.92.04,1.33,0,.41.03.77.04,1.07.01.31.03.51.03.62-.21-.03-.45-.04-.71-.04-.27,0-.53.01-.76.04.03-.14.06-.39.1-.76.03-.36.06-.81.09-1.31.03-.51.06-1.07.1-1.66.03-.6.06-1.2.08-1.8.02-.6.03-1.19.05-1.76.01-.57.02-1.08.02-1.53,0-1.31,0-2.43,0-3.37,0-.94-.03-1.64-.05-2.1h.33c.84.9,1.72,1.86,2.67,2.89.94,1.03,1.88,2.05,2.82,3.05.93,1,1.81,1.95,2.66,2.84.83.9,1.57,1.66,2.2,2.28v-2.78c0-1.43,0-2.82-.03-4.18-.02-1.35-.07-2.63-.14-3.83.27.07.51.1.7.1.16,0,.38-.04.65-.1-.03.3-.05.75-.09,1.35-.04.6-.07,1.24-.1,1.92-.03.69-.07,1.35-.1,2.01-.03.65-.04,1.18-.04,1.57v1.22c0,.47,0,.94.01,1.45,0,.51.01,1.01.02,1.52,0,.51.01.99.02,1.43,0,.44,0,.83,0,1.16v.68h-.28c-1.57-1.81-3.24-3.67-5.01-5.57"></path><path class="st2" d="M411.45,88.87c-.19-.03-.37-.04-.54-.04h-1.09c-.17,0-.35.01-.54.04-.1-.31-.23-.69-.38-1.14-.16-.44-.35-.9-.55-1.39-.19-.49-.4-.97-.6-1.47-.2-.5-.39-.97-.57-1.42-.44-.01-.88-.02-1.33-.03-.45,0-.9-.01-1.35-.01s-.84,0-1.25.01c-.4,0-.82.01-1.25.03-.44,1.07-.83,2.07-1.18,3.04-.36.96-.62,1.75-.79,2.38-.23-.03-.49-.04-.76-.04s-.53.01-.75.04c1.1-2.39,2.18-4.76,3.22-7.12,1.05-2.35,2.11-4.75,3.17-7.19h.39c.33.79.68,1.65,1.06,2.57.38.92.77,1.85,1.16,2.79.4.94.79,1.87,1.19,2.8.39.92.77,1.79,1.11,2.59.35.79.66,1.51.94,2.13.28.62.51,1.1.69,1.43M402.4,82.51c.36,0,.72,0,1.1.02.38.01.75.02,1.1.02.38,0,.77,0,1.15-.01.38,0,.76-.01,1.14-.03l-2.27-5.19-2.22,5.19Z"></path><path class="st2" d="M415.09,75.89c-.36,0-.73,0-1.12,0-.38.01-.77.02-1.16.05-.39.01-.76.04-1.12.07-.36.03-.69.06-.97.1.07-.25.1-.46.1-.66,0-.15-.03-.36-.1-.63.9.03,1.78.05,2.63.07.86.02,1.74.04,2.63.04s1.78-.01,2.64-.04c.86-.02,1.73-.04,2.63-.07-.07.27-.1.49-.1.65,0,.18.03.39.1.64-.29-.04-.61-.07-.97-.1-.36-.03-.73-.05-1.12-.07-.39-.03-.78-.03-1.16-.05-.39,0-.76,0-1.12,0-.04,1.4-.06,2.81-.06,4.23v3.52c0,.9.01,1.79.05,2.65.04.87.08,1.73.12,2.57-.31-.03-.65-.04-1.01-.04s-.68.01-1,.04c.04-.84.08-1.7.11-2.57.03-.87.05-1.76.05-2.65v-3.52c0-1.42-.02-2.83-.06-4.23"></path><path class="st2" d="M423.62,77.47c-.03-.86-.07-1.74-.11-2.65.18.03.34.05.51.08.16.02.33.03.49.03s.33,0,.49-.03c.16-.02.33-.05.51-.08-.04.9-.08,1.79-.11,2.65-.04.86-.05,1.75-.05,2.65v3.51c0,.9.02,1.79.05,2.66.03.87.07,1.73.11,2.57-.31-.03-.64-.04-1-.04s-.69.01-1,.04c.04-.85.08-1.7.11-2.57.03-.88.05-1.76.05-2.66v-3.51c0-.9-.02-1.79-.05-2.65"></path><path class="st2" d="M428.21,81.88c0-1.16.18-2.19.56-3.09.38-.91.9-1.68,1.57-2.3.68-.63,1.48-1.11,2.42-1.43.94-.33,1.97-.49,3.09-.49s2.16.16,3.11.49c.94.32,1.75.8,2.42,1.43.67.62,1.2,1.39,1.57,2.3.37.9.56,1.94.56,3.09s-.19,2.19-.56,3.09c-.38.91-.9,1.68-1.57,2.3-.68.63-1.48,1.1-2.42,1.4-.94.31-1.98.46-3.11.46s-2.15-.15-3.09-.46c-.94-.31-1.75-.77-2.42-1.4-.67-.62-1.2-1.39-1.57-2.3-.38-.9-.56-1.94-.56-3.09M441.51,81.88c0-1.13-.14-2.11-.43-2.94-.29-.82-.69-1.5-1.19-2.04-.51-.54-1.12-.94-1.8-1.2-.69-.26-1.44-.39-2.24-.39s-1.53.13-2.22.39c-.69.26-1.29.66-1.8,1.2-.51.54-.91,1.22-1.2,2.04-.28.83-.42,1.81-.42,2.94s.14,2.11.42,2.93c.29.83.69,1.51,1.2,2.05.51.54,1.11.94,1.8,1.2.68.26,1.42.38,2.22.38s1.55-.12,2.24-.38c.68-.26,1.29-.66,1.8-1.2.51-.54.9-1.22,1.19-2.05.29-.82.43-1.8.43-2.93"></path><path class="st2" d="M452.87,83.56c-1.77-1.9-3.55-3.79-5.31-5.67-.01.38-.03.9-.04,1.53-.01.64-.02,1.51-.02,2.62,0,.28,0,.64,0,1.06,0,.42.01.86.02,1.33,0,.47.02.93.03,1.41.01.48.02.92.04,1.33,0,.41.03.77.04,1.07,0,.31.03.51.03.62-.21-.03-.45-.04-.71-.04-.27,0-.53.01-.76.04.03-.14.06-.39.1-.76.03-.36.06-.81.09-1.31.03-.51.06-1.07.1-1.66.03-.6.06-1.2.08-1.8.02-.6.03-1.19.05-1.76.01-.57.02-1.08.02-1.53,0-1.31,0-2.43,0-3.37,0-.94-.03-1.64-.05-2.1h.33c.83.9,1.72,1.86,2.67,2.89.94,1.03,1.88,2.05,2.82,3.05.93,1,1.81,1.95,2.66,2.84.83.9,1.57,1.66,2.2,2.28v-2.78c0-1.43,0-2.82-.03-4.18-.03-1.35-.07-2.63-.14-3.83.27.07.51.1.7.1.16,0,.38-.04.65-.1-.03.3-.05.75-.09,1.35-.04.6-.07,1.24-.1,1.92-.03.69-.07,1.35-.1,2.01-.03.65-.04,1.18-.04,1.57v1.22c0,.47,0,.94.01,1.45,0,.51.01,1.01.02,1.52,0,.51.01.99.02,1.43,0,.44,0,.83,0,1.16v.68h-.28c-1.57-1.81-3.24-3.67-5.01-5.57"></path><path class="st2" d="M473.21,88.87c-.19-.03-.37-.04-.54-.04h-1.09c-.16,0-.35.01-.54.04-.1-.31-.22-.69-.38-1.14-.16-.44-.35-.9-.55-1.39-.19-.49-.4-.97-.6-1.47-.2-.5-.39-.97-.57-1.42-.44-.01-.88-.02-1.33-.03-.45,0-.9-.01-1.35-.01s-.84,0-1.25.01c-.4,0-.82.01-1.25.03-.43,1.07-.83,2.07-1.18,3.04-.36.96-.61,1.75-.79,2.38-.23-.03-.49-.04-.76-.04s-.53.01-.75.04c1.1-2.39,2.18-4.76,3.22-7.12,1.05-2.35,2.11-4.75,3.17-7.19h.39c.33.79.69,1.65,1.06,2.57.38.92.77,1.85,1.17,2.79.39.94.79,1.87,1.18,2.8.39.92.77,1.79,1.11,2.59.35.79.66,1.51.94,2.13.28.62.51,1.1.69,1.43M464.15,82.51c.36,0,.72,0,1.1.02.38.01.75.02,1.11.02.38,0,.76,0,1.14-.01.38,0,.76-.01,1.14-.03l-2.27-5.19-2.22,5.19Z"></path><path class="st2" d="M475.51,77.47c-.03-.86-.08-1.74-.11-2.65.17.03.34.05.51.08.16.02.33.03.49.03s.33,0,.49-.03c.16-.02.33-.05.51-.08-.04.9-.08,1.79-.11,2.65-.04.86-.05,1.75-.05,2.65,0,1.72,0,3.2.02,4.46.01,1.26.03,2.39.04,3.38.97,0,1.9,0,2.78-.03.89-.02,1.84-.1,2.86-.23-.07.24-.1.45-.1.61,0,.15.03.33.1.55-.62-.03-1.25-.04-1.87-.04h-3.77c-.61,0-1.24.01-1.89.04.03-.85.08-1.7.11-2.57.03-.88.05-1.76.05-2.66v-3.51c0-.9-.01-1.79-.05-2.65"></path><path class="st2" d="M339.64,102.88c0-1.94,0-3.43-.02-4.48-.01-1.05-.05-1.77-.1-2.16.15.02.29.05.43.07.14.02.27.03.41.03.17,0,.38-.03.61-.1-.04.47-.08,1.04-.12,1.7-.04.66-.08,1.37-.1,2.12-.03.76-.05,1.53-.08,2.33-.03.79-.05,1.57-.06,2.32-.01.91-.15,1.73-.42,2.45-.27.73-.64,1.34-1.14,1.84-.49.5-1.09.88-1.81,1.14-.71.26-1.53.39-2.46.39-2.04,0-3.52-.47-4.45-1.39-.92-.93-1.39-2.4-1.39-4.39,0-.64.02-1.21.05-1.71.04-.49.05-1,.05-1.52,0-1.14-.01-2.16-.04-3.05-.03-.88-.05-1.64-.08-2.24.17.02.34.05.53.07.19.02.37.03.53.03.15,0,.29,0,.44-.03.14-.02.29-.05.44-.07-.03.29-.05.69-.08,1.17-.03.49-.05,1.03-.08,1.65-.03.61-.05,1.27-.06,1.98-.01.71-.02,1.44-.02,2.21,0,.46,0,.94.02,1.44.01.5.06.99.14,1.45.08.47.21.92.4,1.35.18.43.45.81.79,1.13.34.32.77.57,1.29.75.52.18,1.16.27,1.92.27s1.38-.11,1.89-.32c.51-.22.93-.51,1.26-.86.33-.36.58-.76.77-1.22.18-.46.32-.94.4-1.45.08-.51.13-1.01.14-1.51.01-.51.02-.97.02-1.39"></path><path class="st2" d="M351.39,104.98c-1.77-1.9-3.55-3.79-5.31-5.67-.01.38-.03.9-.04,1.53-.01.64-.02,1.51-.02,2.62,0,.28,0,.64,0,1.06,0,.42.01.86.02,1.33,0,.47.02.93.03,1.41.01.48.02.92.04,1.33,0,.41.03.77.04,1.07,0,.31.02.51.03.62-.21-.03-.45-.04-.71-.04-.27,0-.53.01-.76.04.03-.14.06-.39.1-.76.03-.36.06-.8.09-1.31.03-.51.06-1.07.1-1.66.03-.6.06-1.2.08-1.8.02-.6.03-1.18.05-1.76.01-.57.02-1.08.02-1.53,0-1.31,0-2.43,0-3.37,0-.94-.03-1.64-.05-2.1h.33c.83.9,1.72,1.86,2.67,2.89.94,1.03,1.88,2.05,2.82,3.05.93,1,1.81,1.95,2.66,2.84.83.9,1.57,1.66,2.2,2.28v-2.78c0-1.43,0-2.82-.03-4.18-.03-1.35-.07-2.63-.14-3.83.27.07.51.1.7.1.16,0,.38-.03.65-.1-.03.29-.05.75-.09,1.35-.04.6-.07,1.24-.1,1.92-.03.69-.07,1.35-.1,2.01-.03.65-.04,1.18-.04,1.57v1.22c0,.47,0,.94.01,1.45,0,.51.01,1.01.02,1.52,0,.51.01.99.02,1.44,0,.44,0,.82,0,1.15v.68h-.28c-1.57-1.81-3.24-3.67-5.01-5.57"></path><path class="st2" d="M360.74,98.89c-.03-.86-.07-1.74-.11-2.65.17.03.34.05.51.08.16.02.33.03.49.03s.33,0,.49-.03c.16-.02.33-.05.51-.08-.04.9-.08,1.79-.11,2.65-.04.86-.05,1.75-.05,2.65v3.51c0,.9.02,1.79.05,2.65.03.88.07,1.73.11,2.58-.32-.03-.64-.04-1-.04s-.69.01-1,.04c.04-.85.08-1.7.11-2.58.03-.87.05-1.75.05-2.65v-3.51c0-.9-.02-1.79-.05-2.65"></path><path class="st2" d="M370.52,110.28c-.32-.8-.69-1.77-1.14-2.9-.45-1.13-.93-2.32-1.44-3.58-.51-1.25-1.03-2.53-1.57-3.84-.53-1.31-1.05-2.55-1.54-3.72.19.03.38.05.55.07.18.02.35.03.51.03s.33,0,.51-.03c.18-.02.36-.04.55-.07.3.9.64,1.84.99,2.83.36.99.75,1.99,1.15,3.02.4,1.02.81,2.05,1.23,3.11.42,1.05.86,2.09,1.29,3.12.25-.55.51-1.18.8-1.87.29-.68.57-1.4.87-2.14.29-.75.58-1.5.87-2.27.28-.77.56-1.51.83-2.22.26-.7.51-1.37.73-1.98.21-.61.4-1.14.55-1.59.3.07.55.1.76.1s.45-.03.75-.1c-1.06,2.37-2.08,4.72-3.07,7.05-.98,2.33-1.92,4.66-2.82,6.99-.22-.03-.44-.04-.67-.04-.27,0-.5.01-.68.04"></path><path class="st2" d="M380.05,98.86c-.03-.87-.07-1.74-.11-2.61.61.03,1.22.05,1.83.07.6.02,1.22.03,1.83.03s1.22-.01,1.82-.03c.6-.02,1.2-.04,1.82-.07-.04.21-.06.41-.06.61s.02.41.06.62c-.44-.03-.83-.06-1.2-.08-.36-.03-.75-.05-1.14-.08-.4-.03-.84-.05-1.32-.07-.48-.02-1.05-.03-1.72-.03-.01.44-.03.86-.05,1.25-.02.4-.03.85-.03,1.35,0,.53,0,1.05.01,1.55,0,.51,0,.89,0,1.14.6,0,1.14,0,1.62-.01.48-.01.92-.04,1.31-.05.4-.02.76-.04,1.1-.06.33-.02.65-.04.95-.07-.04.2-.06.41-.06.63,0,.21.02.41.06.62-.36-.04-.77-.08-1.24-.1-.46-.03-.94-.04-1.41-.05-.47,0-.91,0-1.33-.02-.42,0-.75,0-.99,0,0,.12,0,.25,0,.4,0,.14-.01.33-.01.54v2.03c0,.77,0,1.42.01,1.92,0,.5.01.88.03,1.14h1.43c.52,0,1.03-.01,1.53-.03.49-.02.97-.05,1.41-.08.44-.04.83-.08,1.16-.15-.03.1-.05.2-.05.32,0,.12,0,.23,0,.32,0,.21.02.39.06.53-.61-.03-1.22-.04-1.83-.04h-3.71c-.61,0-1.23.01-1.85.04.04-.87.08-1.74.11-2.6.03-.87.05-1.75.05-2.65v-3.52c0-.9-.02-1.78-.05-2.66"></path><path class="st2" d="M390.32,101.54c0-.9-.01-1.78-.05-2.65-.03-.86-.08-1.75-.12-2.65.4.03.79.05,1.16.08.38.02.77.03,1.17.03s.78-.01,1.16-.05c.38-.03.77-.05,1.16-.05.57,0,1.11.05,1.63.16.52.11.97.29,1.36.54.38.25.69.59.92.99.23.41.33.92.33,1.53,0,.66-.14,1.22-.44,1.69-.29.46-.65.86-1.07,1.16-.42.31-.88.54-1.35.71-.49.17-.92.29-1.32.34.16.2.39.49.68.86.28.37.6.77.96,1.22.36.44.73.9,1.1,1.39.38.48.75.94,1.1,1.39.36.44.69.85,1.01,1.21.31.37.56.65.75.84-.2-.03-.4-.04-.61-.04h-1.2c-.2,0-.4.01-.6.04-.2-.29-.51-.72-.93-1.29-.42-.57-.88-1.18-1.38-1.84-.5-.66-1.01-1.31-1.54-1.95-.53-.65-1.01-1.2-1.44-1.65h-.78v1.49c0,.9.02,1.79.05,2.66.03.87.07,1.72.12,2.57-.32-.03-.65-.04-1-.04s-.69.01-1.01.04c.04-.85.08-1.71.12-2.57.03-.88.05-1.76.05-2.66v-3.51ZM392,102.7c.19.04.4.07.62.08.23.01.47.02.75.02.42,0,.86-.05,1.32-.14.45-.1.88-.26,1.25-.5.38-.24.7-.56.95-.96.25-.4.38-.91.38-1.53,0-.53-.1-.97-.3-1.32-.2-.34-.45-.62-.77-.82-.32-.21-.65-.35-1.02-.42-.37-.08-.73-.11-1.08-.11-.48,0-.88,0-1.19.03-.31.02-.57.05-.79.07-.03.75-.05,1.49-.08,2.22-.03.74-.04,1.47-.04,2.21v1.16Z"></path><path class="st2" d="M402.8,108.37c.18.25.41.48.68.69.26.2.57.37.92.5.36.13.75.2,1.19.2s.86-.08,1.21-.24c.36-.16.67-.36.92-.63.25-.27.44-.58.58-.94.14-.36.21-.75.21-1.15,0-.63-.16-1.13-.49-1.49-.32-.37-.72-.68-1.19-.92-.48-.25-.99-.47-1.55-.67-.55-.21-1.06-.47-1.54-.77-.48-.31-.88-.7-1.2-1.18-.32-.48-.48-1.12-.48-1.92,0-.57.1-1.09.31-1.56.21-.47.5-.88.89-1.22.38-.34.86-.6,1.4-.79.55-.19,1.16-.29,1.84-.29s1.22.08,1.7.23c.47.16.92.4,1.33.73-.12.23-.23.48-.31.74-.08.26-.16.58-.25.98h-.25c-.07-.19-.16-.4-.27-.62-.12-.23-.27-.43-.47-.62-.19-.19-.43-.35-.71-.48-.27-.13-.6-.2-.98-.2s-.73.06-1.05.18c-.32.12-.6.3-.83.52-.24.23-.42.5-.55.81-.13.32-.19.66-.19,1.03,0,.64.16,1.14.48,1.51.32.36.72.68,1.2.92.47.25.99.48,1.54.68.55.2,1.07.44,1.55.73.47.29.88.66,1.19,1.1.32.45.48,1.05.48,1.8,0,.63-.11,1.22-.34,1.78-.23.56-.55,1.05-.98,1.46-.43.42-.95.74-1.57.97-.62.23-1.33.33-2.12.33-.85,0-1.53-.11-2.05-.33-.53-.23-.97-.48-1.32-.77.12-.32.21-.6.26-.85.05-.25.09-.57.13-.97h.25c.11.24.25.49.44.75"></path><path class="st2" d="M412.97,98.89c-.03-.86-.07-1.74-.11-2.65.18.03.34.05.51.08.16.02.33.03.49.03s.33,0,.49-.03c.16-.02.33-.05.51-.08-.04.9-.08,1.79-.11,2.65-.03.86-.05,1.75-.05,2.65v3.51c0,.9.02,1.79.05,2.65.03.88.07,1.73.11,2.58-.32-.03-.64-.04-1-.04s-.69.01-1,.04c.04-.85.08-1.7.11-2.58.03-.87.05-1.75.05-2.65v-3.51c0-.9-.02-1.79-.05-2.65"></path><path class="st2" d="M421.49,97.3c-.36,0-.73,0-1.12,0-.39.01-.77.02-1.16.05-.39.01-.77.04-1.12.07-.36.03-.69.06-.97.1.07-.25.1-.46.1-.66,0-.15-.03-.36-.1-.63.9.03,1.78.05,2.63.07.86.02,1.74.04,2.63.04s1.78-.01,2.63-.04c.86-.02,1.74-.04,2.64-.07-.07.27-.1.49-.1.65,0,.18.03.39.1.64-.29-.04-.61-.07-.97-.1-.36-.03-.74-.05-1.12-.07-.39-.03-.78-.03-1.17-.05-.38,0-.76,0-1.11,0-.04,1.4-.06,2.81-.06,4.23v3.52c0,.9.01,1.79.05,2.65.04.87.08,1.73.12,2.57-.31-.03-.65-.04-1.01-.04s-.68.01-1,.04c.04-.84.08-1.7.11-2.57.03-.87.05-1.76.05-2.65v-3.52c0-1.42-.02-2.83-.06-4.23"></path><path class="st2" d="M430.02,98.89c-.03-.86-.08-1.74-.11-2.65.17.03.34.05.51.08.16.02.33.03.49.03s.33,0,.49-.03c.16-.02.33-.05.51-.08-.04.9-.08,1.79-.11,2.65-.04.86-.05,1.75-.05,2.65v3.51c0,.9.02,1.79.05,2.65.03.88.07,1.73.11,2.58-.32-.03-.64-.04-1-.04s-.69.01-1,.04c.03-.85.08-1.7.11-2.58.03-.87.05-1.75.05-2.65v-3.51c0-.9-.02-1.79-.05-2.65"></path><path class="st2" d="M435.7,98.86c-.03-.87-.07-1.74-.11-2.61.61.03,1.22.05,1.83.07.6.02,1.22.03,1.83.03s1.22-.01,1.82-.03c.6-.02,1.2-.04,1.82-.07-.04.21-.06.41-.06.61s.02.41.06.62c-.44-.03-.83-.06-1.2-.08-.36-.03-.75-.05-1.14-.08-.4-.03-.84-.05-1.32-.07-.48-.02-1.05-.03-1.72-.03-.01.44-.03.86-.05,1.25-.02.4-.03.85-.03,1.35,0,.53,0,1.05.01,1.55,0,.51,0,.89,0,1.14.6,0,1.14,0,1.62-.01.48-.01.92-.04,1.31-.05.4-.02.76-.04,1.1-.06.33-.02.65-.04.95-.07-.04.2-.06.41-.06.63,0,.21.02.41.06.62-.36-.04-.77-.08-1.24-.1-.46-.03-.94-.04-1.41-.05-.47,0-.91,0-1.33-.02-.42,0-.74,0-.99,0,0,.12,0,.25,0,.4,0,.14-.01.33-.01.54v2.03c0,.77,0,1.42.01,1.92,0,.5.01.88.03,1.14h1.43c.52,0,1.03-.01,1.53-.03.5-.02.97-.05,1.41-.08.44-.04.83-.08,1.16-.15-.03.1-.05.2-.05.32,0,.12,0,.23,0,.32,0,.21.02.39.06.53-.61-.03-1.22-.04-1.83-.04h-3.71c-.61,0-1.23.01-1.85.04.04-.87.08-1.74.11-2.6.03-.87.05-1.75.05-2.65v-3.52c0-.9-.02-1.78-.05-2.66"></path><path class="st2" d="M445.96,108.37c.18.25.41.48.68.69.26.2.57.37.92.5.36.13.75.2,1.19.2s.86-.08,1.21-.24c.36-.16.67-.36.92-.63.25-.27.44-.58.58-.94.14-.36.21-.75.21-1.15,0-.63-.16-1.13-.49-1.49-.32-.37-.72-.68-1.19-.92-.48-.25-.99-.47-1.55-.67-.55-.21-1.07-.47-1.54-.77-.48-.31-.88-.7-1.2-1.18-.32-.48-.48-1.12-.48-1.92,0-.57.1-1.09.31-1.56.21-.47.5-.88.89-1.22.38-.34.86-.6,1.4-.79.55-.19,1.16-.29,1.84-.29s1.22.08,1.7.23c.47.16.92.4,1.33.73-.12.23-.23.48-.31.74-.08.26-.16.58-.25.98h-.25c-.07-.19-.16-.4-.27-.62-.12-.23-.27-.43-.47-.62-.19-.19-.43-.35-.71-.48-.27-.13-.6-.2-.98-.2s-.73.06-1.05.18c-.32.12-.6.3-.83.52-.24.23-.42.5-.55.81-.13.32-.19.66-.19,1.03,0,.64.16,1.14.48,1.51.32.36.72.68,1.2.92.47.25.99.48,1.54.68.55.2,1.07.44,1.55.73.47.29.88.66,1.19,1.1.32.45.48,1.05.48,1.8,0,.63-.11,1.22-.34,1.78-.23.56-.55,1.05-.98,1.46-.43.42-.95.74-1.57.97-.62.23-1.33.33-2.12.33-.85,0-1.53-.11-2.05-.33-.53-.23-.97-.48-1.32-.77.12-.32.21-.6.26-.85.05-.25.09-.57.13-.97h.25c.11.24.25.49.44.75"></path><path class="st0" d="M32.11,84.63l28.76,32.35v-12.18l-22.36-25.59-6.41,5.43ZM41.21,76.01l19.65,22.1v-12.37l-13.25-15.15-6.41,5.41ZM50.33,67.88l10.54,11.86v-12.55l-4.13-4.72-6.41,5.41Z"></path><path class="st0" d="M38.51,24.15l22.36,25.14v-12.32l-15.95-18.24-6.41,5.43ZM47.63,15.53l13.24,14.89v-12.52l-6.82-7.8-6.42,5.43ZM60.75,4.01l-4.02,3.38,4.13,4.65V4.01h-.12Z"></path><path class="st0" d="M21.15,78.48l5.42,5.91,33.27-29.06-5.42-6.41-33.26,29.56ZM13.03,69.38l5.41,5.91,33.27-29.07-5.43-6.4-33.25,29.56ZM4.4,60.25l5.42,5.91,33.25-29.06-5.4-6.41L4.4,60.25Z"></path><path class="st1" d="M163.12,117.26h-36.5l-27.97-43.37v43.37h-29.32V4.48h45.62c6.28,0,11.76.92,16.45,2.77,4.69,1.85,8.55,4.36,11.59,7.55,3.05,3.19,5.34,6.88,6.88,11.07,1.54,4.19,2.31,8.68,2.31,13.46,0,8.57-2.07,15.53-6.21,20.86-4.13,5.34-10.24,8.95-18.32,10.84l35.45,46.22ZM98.65,54.89h5.54c5.78,0,10.22-1.2,13.31-3.59,3.09-2.4,4.63-5.84,4.63-10.33s-1.55-7.92-4.63-10.32c-3.09-2.39-7.53-3.59-13.31-3.59h-5.54v27.82Z"></path><path class="st1" d="M242.99,4.48v61.32c0,3.29.12,6.66.38,10.09.25,3.44.99,6.56,2.24,9.35,1.25,2.79,3.22,5.06,5.91,6.81,2.69,1.74,6.48,2.61,11.37,2.61s8.65-.87,11.29-2.61c2.64-1.75,4.61-4.02,5.91-6.81,1.29-2.79,2.07-5.91,2.32-9.35.25-3.43.38-6.8.38-10.09V4.48h29.17v65.36c0,17.55-4.02,30.36-12.04,38.44-8.03,8.08-20.37,12.11-37.02,12.11s-29.02-4.04-37.1-12.11c-8.08-8.08-12.11-20.89-12.11-38.44V4.48h29.32Z"></path><rect class="st0" x="168.05" y="4.48" width="29.32" height="24.86"></rect><rect class="st1" x="168.05" y="38.69" width="29.32" height="78.56"></rect><path class="st2" d="M509.86,114.52c-3.75,3.56-9.57,3.62-13.39.16-4.41-4-4.42-11-.02-15.02,3.82-3.48,9.67-3.42,13.41.15,4.18,3.98,4.18,10.72-.01,14.71M508.47,114.47c2.29-1.75,3.62-4.49,3.6-7.38-.02-2.87-1.38-5.56-3.65-7.27-3.11-2.35-7.39-2.4-10.54-.11-2.37,1.71-3.79,4.48-3.8,7.43,0,2.95,1.4,5.73,3.77,7.46,3.17,2.31,7.49,2.27,10.62-.13"></path><path class="st2" d="M507.37,112.61h-1.76s-2.26-4.47-2.26-4.47h-2.21s0,4.47,0,4.47h-1.49v-10.6h4.31c.4,0,.76.08,1.13.21.83.3,1.43.96,1.69,1.8.45,1.63-.12,3.41-1.85,3.96l2.44,4.63ZM505.22,105.82c.18-.51.17-1.05-.02-1.54-.21-.52-.67-.84-1.24-.86h-2.82s0,3.29,0,3.29h2.81c.58-.01,1.05-.35,1.26-.9"></path></svg>